#N canvas 547 93 697 600 12;
#X obj 98 42 inlet hann-id;
#X msg 284 92 0;
#X obj 98 67 t b b f b, f 27;
#X msg 222 117 symbol hann-\$1;
#X obj 141 187 array size;
#X obj 141 237 until;
#X obj 141 262 f, f 7;
#X obj 141 287 t f f f, f 20;
#X obj 141 312 - 1;
#X obj 141 337 / 511;
#X obj 141 362 * 3.14159;
#X obj 141 387 sin;
#X obj 141 412 t f f;
#X obj 141 437 *, f 5;
#X obj 98 529 outlet done;
#X obj 141 212 t f f, f 12;
#X obj 222 237 - 3;
#X obj 141 493 tabwrite;
#X obj 208 151 t a a, f 22;
#X msg 359 287 set \$1;
#X obj 303 262 + 1;
#X connect 0 0 2 0;
#X connect 1 0 6 1;
#X connect 2 0 14 0;
#X connect 2 1 4 0;
#X connect 2 2 3 0;
#X connect 2 3 1 0;
#X connect 3 0 18 0;
#X connect 4 0 15 0;
#X connect 5 0 6 0;
#X connect 6 0 7 0;
#X connect 7 0 8 0;
#X connect 7 1 17 1;
#X connect 7 2 20 0;
#X connect 8 0 9 0;
#X connect 9 0 10 0;
#X connect 10 0 11 0;
#X connect 11 0 12 0;
#X connect 12 0 13 0;
#X connect 12 1 13 1;
#X connect 13 0 17 0;
#X connect 15 0 5 0;
#X connect 15 1 16 0;
#X connect 16 0 9 1;
#X connect 18 0 4 1;
#X connect 18 1 19 0;
#X connect 19 0 17 0;
#X connect 20 0 6 1;
