#N canvas 541 194 609 528 12;
#X obj 52 31 inlet list;
#X text 135 31 start frame \, rate \, dur \, pan \, amp;
#X obj 52 56 unpack 0 1 100 0.5 0.1, f 30;
#X obj 492 31 inlet id;
#X obj 296 258 tabread4~;
#X msg 492 208 set hann-\$1;
#X obj 207 81 s pan\$0;
#X obj 187 156 line~;
#X msg 187 131 0 \, 1 \$1;
#X obj 296 233 +~ 1;
#X text 371 258 Hann envelope;
#X obj 375 31 inlet name;
#X obj 135 206 value;
#X obj 155 106 t f f;
#X obj 103 156 *;
#X obj 103 181 t f b;
#X obj 103 231 *, f 5;
#X obj 187 283 *~;
#X obj 34 342 +~;
#X obj 34 367 tabread4~;
#X obj 223 367 *~;
#X obj 296 292 r pan\$0;
#X obj 296 317 t f f, f 10;
#X msg 296 342 1 \$1;
#X obj 296 367 -;
#X obj 296 392 sqrt;
#X obj 363 392 sqrt;
#X obj 182 428 *~;
#X obj 264 428 *~;
#X obj 264 453 outlet~ R;
#X obj 182 453 outlet~ L;
#X text 143 231 rate * dur * sr;
#X obj 241 317 *~;
#X msg 296 151 symbol \$1sr001 \; tabname-\$2 set \$1;
#X obj 94 342 r tabname-\$0;
#X obj 375 56 t s b, f 8;
#X obj 428 81 f \$0;
#X obj 375 106 pack s 0;
#X obj 296 208 *~ 511;
#X connect 0 0 2 0;
#X connect 2 0 18 1;
#X connect 2 1 14 0;
#X connect 2 2 13 0;
#X connect 2 3 6 0;
#X connect 2 4 32 1;
#X connect 3 0 5 0;
#X connect 4 0 32 0;
#X connect 5 0 4 0;
#X connect 7 0 17 0;
#X connect 7 0 38 0;
#X connect 8 0 7 0;
#X connect 9 0 4 0;
#X connect 11 0 35 0;
#X connect 12 0 16 1;
#X connect 13 0 14 1;
#X connect 13 1 8 0;
#X connect 14 0 15 0;
#X connect 15 0 16 0;
#X connect 15 1 12 0;
#X connect 16 0 17 1;
#X connect 17 0 18 0;
#X connect 18 0 19 0;
#X connect 19 0 20 0;
#X connect 20 0 28 0;
#X connect 20 0 27 0;
#X connect 21 0 22 0;
#X connect 22 0 23 0;
#X connect 22 1 26 0;
#X connect 23 0 24 0;
#X connect 24 0 25 0;
#X connect 25 0 27 1;
#X connect 26 0 28 1;
#X connect 27 0 30 0;
#X connect 28 0 29 0;
#X connect 32 0 20 1;
#X connect 33 0 12 1;
#X connect 34 0 19 0;
#X connect 35 0 37 0;
#X connect 35 1 36 0;
#X connect 36 0 37 1;
#X connect 37 0 33 0;
#X connect 38 0 9 0;
